# xmcd
#
# Track frame offsets:
# 150
# 14225
# 34003
# 50631
# 61229
# 71721
# 82425
# 94536
# 105383
# 116610
# 132175
# 151353
# 162437
# 174745
# 188389
# 196124
# 206803
# 215077
#
# Disc length: 3079 seconds
#
#
# Revision: 0
# Processed by: cddbd v1.4PL0 Copyright (c) Steve Scherf et al.
# Submitted via: FreeRIP 2.30 
#
DISCID=060c0512
DTITLE=Mance Lipscomb - Trouble In Mind
DYEAR=1999
DGENRE=Blues
TTITLE0=01-Corrina Corrina
TTITLE1=02-Rock Me Mama
TTITLE2=03-Mama Don't Allow
TTITLE3=04-Getaway Blues
TTITLE4=05-Shine On Harvest Moon
TTITLE5=06-Good As I Am To You
TTITLE6=07-Baby Please Don't Go
TTITLE7=08-Getaway Blues
TTITLE8=09-Trouble In Mind
TTITLE9=10-Going Down Slow
TTITLE10=11-Night Time
TTITLE11=12-Long Way To Tipperary
TTITLE12=13-So Different Blues
TTITLE13=14-Ella Speed
TTITLE14=15-See You Mama Every Night
TTITLE15=16-Late Hours Blues
TTITLE16=17-Nobody Cares For Me
TTITLE17=18-Shorty George Cut Down
EXTD=AIM 1306 CD - Australia
EXTT0=
EXTT1=
EXTT2=
EXTT3=
EXTT4=
EXTT5=
EXTT6=
EXTT7=
EXTT8=
EXTT9=
EXTT10=
EXTT11=
EXTT12=
EXTT13=
EXTT14=
EXTT15=
EXTT16=
EXTT17=
PLAYORDER=
